<svg width="250" height="250" viewBox="0 0 250 250" fill="none" xmlns="http://www.w3.org/2000/svg">
<g clip-path="url(#clip0)">
<path d="M250.183 125.085C250.183 194.17 194.18 250.172 125.096 250.172C56.0129 250.172 0.00964378 194.17 0.00964378 125.085C0.00964378 56.0018 56.0129 -0.00124805 125.096 -0.00124805C194.18 -0.00124805 250.183 56.0018 250.183 125.085Z" fill="#272A29"/>
<path d="M36.9307 79.7522C38.9722 79.7506 41.0137 79.7518 43.0555 79.7518C45.0222 79.7518 46.9891 79.7516 48.9561 79.7518C49.1303 79.752 49.3051 79.763 49.4787 79.7526C49.8661 79.7291 50.0116 79.9174 50.0041 80.2895C49.993 80.862 50.0032 81.4347 50.0036 82.0074C50.0037 82.5799 50.0099 83.1528 50.0012 83.7253C49.9909 84.4078 49.9805 84.4193 49.272 84.4253C48.4007 84.433 47.5291 84.4276 46.6578 84.4276C44.9149 84.4276 43.1722 84.4243 41.4293 84.4293C40.7332 84.4314 40.7278 84.4397 40.7232 85.1407C40.7174 86.0118 40.7178 86.8833 40.723 87.7547C40.7276 88.5018 40.7337 88.5133 41.4689 88.5157C43.3859 88.5216 45.303 88.5178 47.2201 88.5183C47.4691 88.5183 47.7184 88.5283 47.967 88.5205C48.3049 88.5099 48.4705 88.6491 48.4684 89.003C48.4611 90.2476 48.4611 91.4926 48.4678 92.7372C48.4697 93.1045 48.2749 93.2049 47.9495 93.1995C47.4268 93.191 46.9039 93.1993 46.3811 93.1993C44.7378 93.1997 43.0945 93.1964 41.4514 93.2012C40.7359 93.2033 40.7274 93.2107 40.7237 93.8895C40.7172 95.1343 40.7166 96.3791 40.7241 97.6241C40.7282 98.267 40.7386 98.2782 41.4086 98.2797C43.7986 98.2849 46.1887 98.282 48.5789 98.2822C48.778 98.2822 48.9772 98.2808 49.1764 98.2824C49.9955 98.2897 49.9993 98.2899 50.0024 99.1149C50.0064 100.161 50.0093 101.206 50.0009 102.252C49.9953 102.925 49.977 102.953 49.3503 102.954C46.512 102.96 43.6732 102.988 40.8357 102.944C38.3132 102.904 36.2174 100.821 36.0512 98.2845C36.0366 98.0612 36.0349 97.8366 36.0349 97.6128C36.0339 91.961 36.0334 86.3093 36.0345 80.6578C36.0345 79.7553 36.0378 79.753 36.9307 79.7522ZM53.8311 93.3301C53.8476 90.491 55.9957 88.2922 58.8234 88.2562C61.0643 88.2278 63.3059 88.2453 65.547 88.2499C66.2368 88.2512 66.2474 88.2655 66.2516 88.9703C66.2582 90.0658 66.2595 91.1616 66.2503 92.2572C66.2449 92.9016 66.2289 92.9183 65.5636 92.9205C63.5714 92.927 61.5791 92.923 59.587 92.9233C59.3878 92.9233 59.188 92.9347 58.9895 92.9233C58.6374 92.9033 58.4995 93.0649 58.503 93.4107C58.5122 94.3072 58.5045 95.2037 58.5043 96.1001C58.5039 98.1172 58.5062 100.134 58.5028 102.152C58.5014 102.947 58.4957 102.953 57.7334 102.957C56.7124 102.962 55.6914 102.96 54.6705 102.957C53.8374 102.954 53.8324 102.951 53.8305 102.146C53.8268 100.652 53.8295 99.1574 53.8295 97.6632C53.8295 96.2187 53.8226 94.7745 53.8311 93.3301ZM53.8316 80.453C53.836 79.7816 53.8537 79.7589 54.483 79.7553C55.877 79.7466 57.2711 79.7455 58.6651 79.7564C59.2209 79.7608 59.2901 79.817 59.2505 80.3593C59.012 83.642 57.5039 86.112 54.5414 87.6357C54.4532 87.681 54.3587 87.7149 54.2666 87.7526C53.9895 87.8653 53.8361 87.7876 53.8353 87.4726C53.8337 86.9499 53.8303 86.4272 53.8295 85.9045C53.8286 85.2074 53.8293 84.5105 53.8293 83.8135C53.8297 82.6932 53.8243 81.5732 53.8316 80.453ZM60.6028 83.6833C60.9911 82.6251 61.212 81.5333 61.2864 80.4103C61.3291 79.7674 61.3303 79.7562 61.9909 79.7541C63.8811 79.7482 65.7712 79.7478 67.6612 79.7549C68.2887 79.7574 68.3128 79.7797 68.318 80.3703C68.3284 81.5391 68.3139 82.7081 68.3237 83.8768C68.3268 84.2385 68.2189 84.4307 67.8174 84.4289C65.4549 84.4187 63.0922 84.4226 60.7295 84.4172C60.638 84.417 60.5462 84.3714 60.468 84.3505C60.3843 84.0812 60.528 83.8874 60.6028 83.6833ZM70.9868 85.9785C72.4701 82.1666 75.2366 80.0095 79.3141 79.572C81.7112 79.3147 84.0293 79.6466 86.2518 80.588C87.1741 80.9785 87.1699 80.9955 86.7772 81.8889C86.3666 82.8228 85.9634 83.7601 85.5459 84.6908C85.3314 85.1693 85.3145 85.1785 84.8332 84.9685C83.2162 84.2626 81.5166 84.0835 79.7872 84.252C77.9153 84.4345 76.538 85.4095 75.6649 87.0797C75.1978 87.9737 74.9568 88.9372 74.8426 89.933C74.6587 91.5335 74.7439 93.1166 75.2486 94.6555C76.0486 97.0951 77.9351 98.4841 80.503 98.5541C81.0768 98.5697 81.6462 98.5262 82.2143 98.4464C82.9459 98.3435 82.9539 98.3478 82.9555 97.6207C82.9595 95.6543 82.9522 93.6881 82.9584 91.7218C82.9626 90.4141 82.8149 90.5437 84.1739 90.5364C84.9455 90.5322 85.717 90.5335 86.4887 90.536C87.7453 90.5405 87.6301 90.4414 87.6335 91.6443C87.6378 93.1128 87.6345 94.5812 87.6345 96.0497C87.6337 97.6426 87.6164 99.2358 87.6441 100.828C87.6526 101.317 87.4807 101.617 87.0662 101.849C86.0097 102.44 84.8786 102.794 83.6895 102.988C81.8082 103.294 79.9274 103.37 78.0522 102.96C74.8885 102.268 72.662 100.407 71.2943 97.4926C70.6639 96.1493 70.3032 94.7255 70.1678 93.2562C69.9399 90.7787 70.0718 88.3303 70.9868 85.9785ZM25.6372 112.477C25.6374 113.661 25.5622 113.511 26.6851 113.511C50.1214 113.514 73.5578 113.514 96.9941 113.512C98.1687 113.512 98.0372 113.633 98.0374 112.48C98.0397 94.598 98.0389 76.7155 98.0403 58.8331C98.0403 58.5372 98.0528 15.8974 98.0624 2.92969C68.7322 9.39142 43.2645 26.146 25.6399 49.2141C25.6372 54.9035 25.6347 58.7424 25.6347 58.8303C25.6368 76.7126 25.6364 94.5949 25.6372 112.477Z" fill="#ED7361"/>
<path d="M87.6322 96.0487C87.6319 97.6415 87.6146 99.2348 87.6422 100.827C87.6507 101.316 87.4788 101.616 87.0644 101.848C86.0078 102.439 84.8767 102.793 83.6876 102.987C81.8063 103.293 79.9255 103.369 78.0503 102.958C74.8867 102.267 72.6601 100.406 71.2924 97.4915C70.6619 96.1483 70.3011 94.7244 70.1659 93.2552C69.938 90.7777 70.0701 88.3292 70.9851 85.9775C72.468 82.1656 75.2347 80.0085 79.3122 79.5708C81.7094 79.3137 84.0272 79.6456 86.2499 80.5869C87.1722 80.9775 87.1678 80.9944 86.7751 81.8879C86.3647 82.8217 85.9615 83.759 85.5442 84.6898C85.3296 85.1683 85.3126 85.1775 84.8313 84.9673C83.2142 84.2615 81.5147 84.0825 79.7853 84.251C77.9132 84.4335 76.5359 85.4085 75.663 87.0787C75.1959 87.9727 74.9549 88.9362 74.8405 89.9319C74.6569 91.5325 74.7421 93.1156 75.2467 94.6544C76.0467 97.094 77.933 98.4831 80.5009 98.5531C81.0749 98.5687 81.6442 98.5252 82.2124 98.4454C82.944 98.3425 82.9521 98.3467 82.9534 97.6196C82.9576 95.6533 82.9501 93.6871 82.9565 91.7208C82.9607 90.4131 82.813 90.5427 84.1721 90.5354C84.9436 90.5312 85.7151 90.5323 86.4867 90.535C87.7434 90.5394 87.6282 90.4404 87.6317 91.6433C87.6359 93.1117 87.6326 94.5802 87.6322 96.0487Z" fill="white"/>
<path d="M43.0627 79.7512H48.9633C49.1375 79.7514 49.3125 79.7626 49.486 79.752C49.8735 79.7287 50.0189 79.9168 50.0116 80.2889C50.0004 80.8614 50.0104 81.4341 50.0108 82.0068C50.011 82.5795 50.0173 83.1522 50.0085 83.7247C49.9981 84.4074 49.9877 84.4187 49.2793 84.4249C48.4079 84.4324 47.5366 84.427 46.665 84.427C44.9223 84.4272 43.1794 84.4237 41.4366 84.4289C40.7404 84.4308 40.735 84.4393 40.7304 85.1401C40.7246 86.0114 40.7252 86.8828 40.7304 87.7543C40.7348 88.5012 40.7412 88.5129 41.4762 88.5151C43.3933 88.521 45.3104 88.5174 47.2275 88.5178C47.4764 88.5179 47.7256 88.528 47.9743 88.5201C48.3123 88.5093 48.4777 88.6485 48.4756 89.0024C48.4683 90.2472 48.4683 91.492 48.475 92.7368C48.4769 93.1039 48.2821 93.2043 47.9568 93.1991C47.4341 93.1906 46.9112 93.1987 46.3883 93.1989C44.7452 93.1993 43.1019 93.1958 41.4587 93.2006C40.7431 93.2028 40.7346 93.2101 40.731 93.8889C40.7246 95.1337 40.7239 96.3787 40.7314 97.6235C40.7354 98.2666 40.7458 98.2776 41.4158 98.2791C43.806 98.2845 46.196 98.2814 48.5862 98.2816C48.7854 98.2816 48.9846 98.2803 49.1839 98.282C50.0027 98.2891 50.0066 98.2893 50.0098 99.1143C50.0139 100.16 50.0166 101.206 50.0081 102.251C50.0027 102.925 49.9843 102.952 49.3575 102.953C46.5194 102.959 43.6806 102.988 40.8431 102.943C38.3206 102.903 36.2246 100.821 36.0587 98.2839C36.0441 98.0606 36.0421 97.8362 36.0421 97.6122C36.0412 91.9604 36.0408 86.3089 36.0418 80.6572C36.0419 79.7549 36.0452 79.7524 36.9379 79.7516C38.9796 79.7503 41.0212 79.7512 43.0627 79.7512Z" fill="white"/>
<path d="M53.8356 97.6644C53.8356 96.22 53.8286 94.7758 53.8371 93.3314C53.8536 90.4923 56.0017 88.2935 58.8294 88.2573C61.0704 88.2291 63.3119 88.2466 65.5531 88.2512C66.2429 88.2525 66.2534 88.2666 66.2577 88.9714C66.2642 90.0671 66.2656 91.1629 66.2563 92.2585C66.2509 92.9029 66.2352 92.9196 65.5696 92.9217C63.5775 92.9283 61.5852 92.9242 59.5929 92.9246C59.3938 92.9246 59.194 92.936 58.9956 92.9246C58.6434 92.9046 58.5056 93.066 58.509 93.4119C58.5182 94.3083 58.5106 95.2048 58.5104 96.1014C58.51 98.1185 58.5123 100.136 58.5088 102.153C58.5075 102.948 58.5017 102.954 57.7394 102.958C56.7184 102.963 55.6975 102.962 54.6765 102.958C53.8434 102.956 53.8384 102.953 53.8365 102.147C53.8329 100.653 53.8356 99.1587 53.8356 97.6644Z" fill="white"/>
<path d="M60.4806 84.3509C60.3969 84.0818 60.5406 83.8878 60.6154 83.6838C61.0037 82.6257 61.2246 81.534 61.299 80.4107C61.3419 79.7678 61.3429 79.7566 62.0035 79.7547C63.8937 79.7486 65.7838 79.7482 67.6738 79.7555C68.3012 79.7578 68.3254 79.7801 68.3308 80.3707C68.341 81.5395 68.3265 82.7086 68.3363 83.8774C68.3394 84.239 68.2315 84.4311 67.83 84.4293C65.4675 84.4191 63.1048 84.423 60.7423 84.4176C60.6506 84.4174 60.5588 84.3718 60.4806 84.3509Z" fill="white"/>
<path d="M53.8347 83.815C53.8349 82.6948 53.8295 81.5747 53.8369 80.4545C53.8413 79.7833 53.859 79.7606 54.4884 79.7566C55.8822 79.7483 57.2763 79.747 58.6703 79.7581C59.2263 79.7625 59.2953 79.8185 59.2559 80.361C59.0172 83.6435 57.5092 86.1137 54.5467 87.6372C54.4584 87.6825 54.3642 87.7166 54.2719 87.7541C53.9949 87.867 53.8415 87.7893 53.8405 87.4741C53.8392 86.9514 53.8355 86.4287 53.8347 85.906C53.8338 85.2091 53.8347 84.512 53.8347 83.815Z" fill="white"/>
<path d="M108.839 132.706C108.839 132.681 108.835 132.664 108.834 132.642V132.203H108.514C108.459 132.194 108.398 132.189 108.326 132.19C107.431 132.212 106.534 132.184 105.638 132.203H105.107V125.178H108.232C108.262 125.178 108.284 125.177 108.311 125.177H108.834V119.682H97.9004V137.751H97.9006V153.61H98.269C98.3044 153.61 98.3425 153.61 98.3848 153.61H105.107V137.751H105.549C106.47 137.766 107.391 137.743 108.312 137.763C108.384 137.764 108.445 137.759 108.501 137.751H108.834V137.379C108.838 137.342 108.839 137.303 108.839 137.26C108.836 137.004 108.836 136.748 108.834 136.492V133.503C108.837 133.238 108.836 132.972 108.839 132.706Z" fill="white"/>
<path d="M118.462 147.923V137.735H122.455V134.963C122.455 134.192 122.455 133.421 122.465 132.651C122.466 132.588 122.462 132.535 122.455 132.485V132.129H122.04C122.013 132.128 121.988 132.126 121.959 132.126C121.841 132.128 121.723 132.127 121.605 132.129H118.462V125.182H121.416C121.604 125.184 121.793 125.183 121.982 125.186C122.027 125.187 122.067 125.186 122.105 125.182C122.107 125.182 122.109 125.181 122.112 125.181H122.453V124.814C122.456 124.782 122.462 124.755 122.462 124.717C122.455 123.957 122.453 123.197 122.453 122.437V122.352C122.454 121.597 122.456 120.842 122.459 120.088C122.459 120.049 122.457 120.013 122.453 119.98V119.683H122.135C122.115 119.683 122.096 119.682 122.073 119.683C122.062 119.684 122.051 119.683 122.04 119.683H121.645C121.638 119.683 121.632 119.683 121.625 119.683C120.571 119.683 119.516 119.683 118.462 119.683V119.683H111.953C111.841 119.682 111.745 119.682 111.666 119.683H111.268V120.087C111.266 120.183 111.268 120.303 111.268 120.449V125.814C111.268 127.919 111.268 130.024 111.268 132.129C111.268 133.627 111.268 135.126 111.268 136.625V137.735C111.268 139.676 111.268 141.616 111.268 143.557V153.61H115.528C116.506 153.61 117.484 153.611 118.462 153.612C119.625 153.612 120.788 153.613 121.951 153.616C122.332 153.617 122.47 153.505 122.465 153.109C122.446 151.566 122.461 150.022 122.455 148.479C122.453 147.944 122.441 147.932 121.924 147.928C120.953 147.92 119.982 147.931 119.011 147.923H118.462Z" fill="white"/>
<path d="M141.151 128.49C141.152 128.091 141.153 127.693 141.153 127.294C141.154 126.05 141.172 124.805 141.015 123.565C140.784 121.746 139.624 119.885 137.16 119.661C134.375 119.407 131.587 119.404 128.808 119.689C126.306 119.946 125.08 121.244 124.835 123.733C124.632 125.796 124.784 127.864 124.733 129.929C124.714 130.729 124.785 131.522 124.873 132.314C125.029 133.719 125.648 134.868 126.788 135.726C127.427 136.206 128.105 136.621 128.802 137.007C130.152 137.755 131.499 138.506 132.852 139.247C133.495 139.599 133.815 140.104 133.871 140.858C134.014 142.774 133.913 144.691 133.948 146.607C133.954 146.885 133.889 147.154 133.792 147.409C133.647 147.787 133.376 148.023 132.95 148.034C132.527 148.046 132.222 147.826 132.059 147.377C131.921 146.998 131.899 146.601 131.9 146.2C131.901 145.396 131.899 144.591 131.9 143.787H131.902V139.543H124.734V143.787H124.735C124.735 143.968 124.735 144.15 124.735 144.331C124.735 144.829 124.731 145.327 124.736 145.825C124.746 147.069 124.68 148.316 124.861 149.554C124.988 150.426 125.222 151.248 125.771 151.968C126.628 153.092 127.818 153.49 129.156 153.597C131.319 153.768 133.483 153.766 135.648 153.637C136.295 153.598 136.939 153.557 137.577 153.436C138.62 153.238 139.472 152.764 140.132 151.898C140.92 150.863 141.107 149.667 141.124 148.444C141.163 145.655 141.126 142.866 141.143 140.077C141.159 137.557 140.125 135.676 137.88 134.47C136.433 133.694 135.009 132.875 133.578 132.069C133.254 131.886 132.932 131.695 132.627 131.481C132.22 131.197 131.938 130.795 131.929 130.3C131.905 128.931 131.925 127.562 131.93 126.192C131.931 126.119 131.953 126.045 131.971 125.973C132.102 125.433 132.478 125.08 132.926 125.074C133.358 125.069 133.744 125.443 133.862 125.984C133.942 126.352 133.951 126.724 133.95 127.099C133.95 127.669 133.951 128.239 133.952 128.808V128.997C133.952 129.609 133.951 130.222 133.945 130.834C133.944 130.898 133.947 130.955 133.952 131.008V131.352H134.244C134.296 131.361 134.353 131.367 134.423 131.366C135.468 131.355 136.512 131.351 137.557 131.352H137.566C138.61 131.352 139.654 131.356 140.698 131.363C140.757 131.363 140.806 131.358 140.851 131.352H141.151V131.032C141.157 130.986 141.16 130.937 141.159 130.88C141.152 130.354 141.151 129.827 141.151 129.3V128.49Z" fill="white"/>
<path d="M157.199 119.684H156.812C156.806 119.684 156.802 119.682 156.796 119.683C156.778 119.684 156.759 119.683 156.741 119.684H145.856C145.047 119.684 144.239 119.685 143.43 119.679C143.375 119.678 143.326 119.68 143.279 119.684H142.895V119.998C142.887 120.045 142.883 120.097 142.883 120.158C142.892 120.922 142.895 121.687 142.895 122.451V122.502C142.895 123.264 142.891 124.026 142.886 124.788C142.886 124.831 142.891 124.865 142.895 124.901V125.219H146.498V153.612H153.7V153.338C153.71 153.203 153.7 153.006 153.7 152.71C153.704 143.874 153.702 135.037 153.702 126.201C153.702 126.027 153.717 125.851 153.7 125.679V125.219H154.846C155.341 125.222 155.837 125.221 156.333 125.219H157.199V120.175C157.199 120.141 157.199 120.106 157.2 120.072C157.2 120.069 157.199 120.068 157.199 120.065V119.684Z" fill="white"/>
<path d="M159.518 119.683H159.156V120.191C159.155 120.267 159.155 120.354 159.156 120.454V144.316C159.156 147.109 159.156 149.902 159.156 152.694C159.156 152.696 159.156 152.698 159.156 152.699V153.083C159.155 153.103 159.156 153.123 159.154 153.142C159.147 153.215 159.148 153.277 159.156 153.332V153.612H159.468C159.513 153.617 159.56 153.62 159.615 153.618C159.832 153.612 160.049 153.613 160.266 153.612H162.168C162.961 153.612 163.754 153.613 164.547 153.612H166.352V119.683H159.689C159.625 119.682 159.568 119.682 159.518 119.683Z" fill="white"/>
<path d="M184.412 124.101H184.415L185.036 119.684H184.62C184.6 119.684 184.58 119.683 184.561 119.684H178.221L178.169 120.422C177.963 123.29 177.758 126.157 177.548 129.025C177.269 132.842 176.986 136.658 176.705 140.475C176.699 140.556 176.693 140.637 176.687 140.718V140.718C176.669 140.969 176.65 141.22 176.632 141.471C176.62 141.623 176.609 141.775 176.598 141.927C176.565 141.443 176.534 140.959 176.501 140.475C176.103 134.572 175.721 128.668 175.326 122.764C175.266 121.87 175.189 120.977 175.128 120.083C175.126 120.05 175.122 120.019 175.118 119.99L175.096 119.679L169.709 119.681C169.365 119.681 169.02 119.683 168.675 119.682C168.672 119.682 168.669 119.682 168.666 119.682L168.243 119.682L168.523 122.063C168.53 122.118 168.535 122.173 168.542 122.228C168.866 124.996 169.195 127.763 169.519 130.532C169.839 133.275 170.153 136.019 170.473 138.763C170.803 141.581 171.136 144.398 171.469 147.215C171.542 147.833 171.617 148.45 171.691 149.068H171.687L172.216 153.609H172.518C172.561 153.615 172.607 153.619 172.66 153.618C173.686 153.612 174.712 153.61 175.738 153.609C176.3 153.608 176.862 153.609 177.424 153.611C178.227 153.612 179.03 153.613 179.832 153.617C179.887 153.618 179.935 153.614 179.98 153.609H180.326L180.939 149.068H180.932C181.409 145.654 181.886 142.239 182.362 138.825C183.047 133.917 183.735 129.01 184.412 124.101Z" fill="white"/>
<path d="M193.101 141.312C192.828 141.316 192.554 141.302 192.281 141.314C191.946 141.328 191.849 141.158 191.872 140.854C191.932 140.062 191.982 139.269 192.039 138.476C192.235 135.8 192.827 128.82 192.827 128.82C192.827 128.82 193.082 131.878 193.185 133.286C193.363 135.739 193.533 138.192 193.708 140.645C193.755 141.302 193.759 141.303 193.101 141.312ZM200.381 144.587C199.96 141.205 199.547 137.822 199.127 134.44C198.835 132.09 198.54 129.739 198.246 127.389H198.247L198.188 126.916C198.066 125.944 197.945 124.971 197.823 123.999C197.669 122.765 197.521 121.53 197.365 120.296C197.35 120.181 197.338 120.094 197.323 120.019L197.282 119.692H190.583C190.044 119.691 189.505 119.692 188.967 119.69C188.948 119.69 188.932 119.692 188.914 119.692H188.488L188.449 120.002C188.431 120.059 188.418 120.123 188.41 120.199C188.368 120.621 188.317 121.042 188.264 121.463L188.179 122.131C188.141 122.426 188.102 122.719 188.065 123.014C187.637 126.395 187.208 129.775 186.783 133.156C186.363 136.488 185.949 139.821 185.528 143.152C185.113 146.435 184.69 149.716 184.275 152.998C184.264 153.092 184.256 153.167 184.252 153.233L184.204 153.597H190.92L191.027 152.214C191.105 151.212 191.183 150.21 191.259 149.208L191.41 147.261C191.46 146.966 191.618 146.867 191.946 146.879C192.443 146.898 192.941 146.881 193.439 146.884C194.186 146.889 194.182 146.891 194.241 147.605C194.302 148.348 194.364 149.09 194.426 149.832L194.719 153.597H198.582C198.941 153.599 199.3 153.598 199.66 153.597H200.854C200.99 153.601 201.099 153.604 201.184 153.597H201.532L201.188 151.014C200.922 148.871 200.648 146.73 200.381 144.587Z" fill="white"/>
<path d="M215.29 150.935V150.564C215.291 149.829 215.296 149.094 215.307 148.359C215.308 148.284 215.301 148.223 215.29 148.169V147.888H214.92C214.872 147.885 214.821 147.883 214.765 147.884C214.435 147.888 214.104 147.888 213.774 147.888H210.976V130.424C210.976 128.73 210.976 127.036 210.976 125.342H210.976V119.682H203.772V120.116C203.771 120.196 203.771 120.293 203.772 120.406V125.342H203.772C203.772 129.104 203.772 132.866 203.772 136.628V150.97C203.772 150.986 203.772 151.002 203.772 151.018V152.53C203.771 152.732 203.772 152.934 203.766 153.136C203.765 153.19 203.767 153.237 203.772 153.28V153.61H204.095C204.136 153.615 204.181 153.617 204.232 153.616C204.523 153.61 204.814 153.611 205.105 153.61H206.798C206.864 153.61 206.93 153.61 206.996 153.61C208.323 153.61 209.649 153.612 210.976 153.613C212.239 153.613 213.502 153.611 214.765 153.614C214.818 153.614 214.866 153.613 214.912 153.61H215.29V153.326C215.301 153.273 215.308 153.214 215.307 153.14C215.296 152.405 215.291 151.67 215.29 150.935Z" fill="white"/>
<path d="M51.9354 141.326C51.6619 141.33 51.3877 141.316 51.1146 141.328C50.7796 141.342 50.6819 141.172 50.705 140.868C50.7652 140.074 50.8148 139.28 50.8729 138.487C51.0684 135.808 51.6613 128.821 51.6613 128.821C51.6613 128.821 51.9167 131.882 52.0192 133.292C52.1975 135.747 52.3675 138.203 52.5431 140.658C52.59 141.315 52.5934 141.317 51.9354 141.326ZM60.0261 153.623H60.3746L60.0306 151.037C59.7638 148.892 59.4896 146.748 59.2229 144.604C58.8015 141.218 58.3877 137.833 57.9671 134.447C57.6748 132.094 57.38 129.741 57.0859 127.388H57.0861L57.0269 126.916C56.9052 125.943 56.7836 124.969 56.6623 123.995C56.5082 122.76 56.36 121.524 56.2034 120.288C56.189 120.174 56.1761 120.086 56.1613 120.012L56.1204 119.685H49.4146C48.8754 119.684 48.3361 119.684 47.7969 119.682C47.7779 119.682 47.7621 119.684 47.7442 119.685H47.3173L47.2782 119.994C47.2607 120.052 47.2475 120.116 47.2398 120.192C47.1979 120.614 47.1463 121.036 47.0931 121.457L47.0084 122.126C46.97 122.42 46.9313 122.715 46.8942 123.009C46.4665 126.393 46.0369 129.778 45.6106 133.162C45.1906 136.497 44.7765 139.833 44.3552 143.168C43.9398 146.453 43.5161 149.738 43.1011 153.023C43.0892 153.118 43.0819 153.192 43.0775 153.259L43.0298 153.623H49.7527L49.8596 152.239C49.9379 151.236 50.0152 150.233 50.0919 149.229L50.2423 147.28C50.2927 146.985 50.4509 146.886 50.7792 146.898C51.2769 146.918 51.7757 146.901 52.274 146.903C53.0219 146.908 53.0177 146.91 53.0763 147.625C53.1371 148.368 53.2002 149.111 53.2617 149.854L53.5546 153.623H57.4215C57.7811 153.625 58.1409 153.624 58.5006 153.623H59.6956C59.8323 153.627 59.9417 153.63 60.0261 153.623Z" fill="#ED7361"/>
<path d="M41.2648 122.816V120.381C41.2655 120.292 41.2657 120.213 41.2648 120.145V119.686H34.1171V120.182C34.1159 120.262 34.1165 120.355 34.1171 120.463V129.952H34.1173C34.1171 133.541 34.1169 137.13 34.1169 140.719C34.1169 142.613 34.118 144.507 34.1144 146.401C34.1136 146.774 34.1267 147.15 33.9948 147.51C33.8315 147.956 33.5342 148.178 33.1067 148.171C32.678 148.164 32.368 147.934 32.2086 147.505C32.1017 147.217 32.1163 146.916 32.1161 146.618C32.1157 145.87 32.1154 145.122 32.1154 144.373V139.382H25.608V142.895C25.6044 143.709 25.6019 144.523 25.608 145.338V145.6H25.6113C25.6215 146.587 25.645 147.575 25.6982 148.562C25.7359 149.261 25.8109 149.953 25.9915 150.629C26.4186 152.231 27.42 153.217 29.0807 153.481C30.985 153.784 32.9044 153.763 34.8223 153.713C35.9409 153.683 37.0653 153.657 38.1592 153.366C39.86 152.914 40.8169 151.794 41.1148 150.079C41.2777 149.142 41.2871 148.195 41.2877 147.248C41.29 143.062 41.2886 138.876 41.2886 134.69C41.2817 134.69 41.2703 127.715 41.2648 122.816Z" fill="#ED7361"/>
<path d="M75.8296 151.089V150.474C75.83 149.789 75.8317 149.105 75.8367 148.42C75.8371 148.374 75.8346 148.331 75.8296 148.293V147.957H75.4329C75.4032 147.955 75.3732 147.954 75.3404 147.954C75.0484 147.957 74.7565 147.956 74.4648 147.957H69.7181C69.8052 147.597 69.8579 147.355 69.9221 147.117C71.8352 140.023 73.75 132.93 75.6623 125.836C75.7225 125.613 75.8009 125.386 75.8138 125.16H75.8296V122.412C75.8302 121.641 75.8302 120.87 75.8329 120.099C75.8329 120.088 75.8298 120.08 75.8296 120.07V119.69H75.455C75.4486 119.69 75.445 119.688 75.4386 119.688C75.3448 119.692 75.2509 119.691 75.1571 119.69H75.13C75.0334 119.689 74.9369 119.687 74.8404 119.687C71.7746 119.687 68.7086 119.687 65.6427 119.687C65.3915 119.687 65.1402 119.689 64.8888 119.69H64.4398C64.1429 119.691 63.8459 119.69 63.549 119.683C63.4959 119.681 63.4498 119.685 63.4067 119.69H63.0752V120.047C63.0709 120.085 63.069 120.126 63.0692 120.171C63.0727 120.916 63.0752 121.662 63.0752 122.407V122.419C63.0752 123.165 63.0727 123.911 63.0663 124.657C63.0659 124.711 63.0692 124.759 63.0752 124.803V125.16H63.4446C63.4925 125.166 63.5434 125.169 63.6011 125.168C64.2077 125.161 64.8144 125.159 65.4209 125.16H65.4644C66.0646 125.161 66.665 125.163 67.2652 125.163C68.4477 125.164 68.449 125.164 68.1373 126.308C66.2325 133.301 64.3261 140.293 62.4242 147.286C62.3333 147.621 62.2234 147.951 62.2254 148.309C62.2294 149.085 62.2292 149.861 62.2286 150.637V153.621H75.2988C75.3223 153.622 75.3457 153.621 75.369 153.622C75.419 153.626 75.4631 153.625 75.5034 153.621H75.8296V153.266C75.834 153.224 75.8367 153.18 75.8363 153.131C75.8321 152.451 75.8302 151.77 75.8296 151.089Z" fill="#ED7361"/>
<path d="M89.2944 147.957C88.3938 147.958 87.4934 147.958 86.5929 147.955C86.3229 147.954 85.699 147.957 85.699 147.957C85.77 147.684 85.8655 147.3 85.9419 147.017C87.8486 139.949 89.7565 132.882 91.6607 125.813C91.738 125.526 91.8321 125.243 91.8309 124.937C91.8282 124.188 91.829 123.439 91.8294 122.69V119.69H91.3171C91.298 119.69 91.2832 119.69 91.2629 119.69C87.3754 119.685 83.488 119.685 79.6005 119.69C79.598 119.69 79.5963 119.69 79.594 119.69H79.0405V125.16H79.5788C79.6017 125.16 79.6196 125.161 79.6444 125.161C80.965 125.168 82.2859 125.16 83.6065 125.167C83.664 125.167 83.7221 125.164 83.7805 125.16H84.0523C84.1479 125.17 84.2417 125.196 84.3309 125.256C84.4005 125.571 84.2517 125.848 84.1752 126.13C82.368 132.787 80.5525 139.441 78.7407 146.095C78.5644 146.744 78.283 147.391 78.2561 148.047C78.2307 148.664 78.2229 149.281 78.2196 149.898C78.2182 149.922 78.2167 149.947 78.2167 149.968V150.552C78.2167 150.6 78.2165 150.649 78.2167 150.697V153.621H91.8317V147.957H89.2944Z" fill="#ED7361"/>
<path d="M188.485 96.4525C188.485 93.2283 188.486 90.0038 188.484 86.7796C188.484 86.505 188.489 86.2277 188.454 85.9563C188.377 85.3627 188.052 85.0359 187.561 85.0231C187.046 85.0094 186.631 85.3536 186.538 85.9298C186.483 86.2725 186.491 86.6271 186.491 86.9765C186.488 93.3 186.489 99.6238 186.489 105.947C186.489 106.197 186.498 106.447 186.506 106.697C186.514 106.951 186.584 107.192 186.696 107.417C186.88 107.787 187.217 107.971 187.613 107.935C188.006 107.899 188.247 107.675 188.378 107.314C188.501 106.976 188.484 106.624 188.484 106.276C188.486 103.001 188.485 99.7269 188.485 96.4525ZM195.662 96.5265C195.662 100.455 195.661 104.384 195.663 108.313C195.663 109.223 195.526 110.109 195.194 110.957C194.735 112.13 193.907 112.889 192.674 113.217C191.326 113.576 189.946 113.552 188.574 113.592C187.024 113.638 185.471 113.623 183.922 113.51C183.847 113.504 183.772 113.503 183.697 113.497C181.183 113.318 179.756 111.966 179.462 109.467C179.377 108.747 179.321 108.024 179.321 107.296C179.326 100.19 179.325 93.0827 179.323 85.9758C179.323 85.099 179.365 84.2244 179.454 83.3531C179.677 81.1569 181.124 79.7261 183.314 79.5592C186.012 79.3533 188.712 79.3338 191.411 79.5438C193.9 79.7373 195.217 80.999 195.559 83.4696C195.67 84.2671 195.671 85.0665 195.672 85.8663C195.678 89.4198 195.675 92.9733 195.675 96.5265H195.662Z" fill="#ED7361"/>
<path d="M129.232 96.4753C129.232 93.2755 129.234 90.0757 129.229 86.8759C129.228 86.5274 129.216 86.1738 129.156 85.8319C129.064 85.3117 128.762 85.0463 128.314 85.0219C127.881 84.9984 127.501 85.2557 127.332 85.6919C127.222 85.9767 127.205 86.2765 127.205 86.5776C127.204 93.127 127.204 99.6765 127.202 106.226C127.202 106.579 127.241 106.927 127.359 107.259C127.526 107.73 127.868 107.964 128.319 107.936C128.745 107.91 129.02 107.67 129.14 107.192C129.232 106.827 129.233 106.451 129.233 106.075C129.231 102.875 129.232 99.6751 129.232 96.4753ZM136.431 97.0542C136.414 100.506 136.469 104.56 136.373 108.613C136.354 109.423 136.214 110.203 135.921 110.957C135.464 112.135 134.638 112.889 133.404 113.217C132.056 113.575 130.676 113.555 129.304 113.593C127.779 113.635 126.252 113.622 124.728 113.517C124.302 113.488 123.88 113.447 123.464 113.351C121.894 112.991 120.841 112.084 120.402 110.496C120.104 109.42 120.069 108.32 120.067 107.221C120.054 100.24 120.05 93.2576 120.07 86.2755C120.074 85.1538 120.036 84.0228 120.259 82.9092C120.648 80.9667 121.927 79.747 123.894 79.5769C126.74 79.3307 129.593 79.3103 132.44 79.5719C134.752 79.7842 136.158 81.3009 136.324 83.7672C136.411 85.0642 136.42 86.3676 136.426 87.6682C136.44 90.5961 136.431 93.5242 136.431 97.0542Z" fill="#ED7361"/>
<path d="M168.998 105.907C168.998 106.232 169 106.559 168.966 106.882C168.876 107.723 167.953 108.249 167.181 107.917C167.04 107.857 167.01 107.747 167.004 107.622C166.995 107.422 166.996 107.222 166.996 107.022C166.996 103.52 166.996 100.018 166.996 96.5159C166.996 93.039 166.996 89.5623 166.996 86.0854C166.996 85.8854 166.998 85.6854 167.003 85.4854C167.006 85.3211 167.072 85.2125 167.243 85.155C168.11 84.8638 168.885 85.3454 168.969 86.2482C168.999 86.5711 168.998 86.8977 168.999 87.2227C169 93.4509 169 99.6792 168.998 105.907ZM176.274 85.9302C176.252 84.8571 176.211 83.7719 175.875 82.739C175.357 81.1471 174.366 80.0554 172.625 79.7955C171.806 79.6734 170.982 79.6015 170.159 79.5954C168.82 79.5855 167.481 79.5823 166.143 79.5794V79.5746H159.793V96.5111C159.793 98.9298 159.793 101.349 159.793 103.767H159.793V112.981C159.792 112.995 159.793 113.009 159.792 113.023C159.789 113.071 159.79 113.115 159.793 113.155V113.49H160.098C160.153 113.498 160.213 113.501 160.282 113.495C160.406 113.485 160.532 113.495 160.657 113.495C161.387 113.492 162.118 113.491 162.848 113.49H166.143V113.478C166.916 113.475 167.689 113.473 168.463 113.466C169.862 113.455 171.264 113.457 172.651 113.206C174.514 112.869 175.612 111.745 176.023 109.928C176.244 108.949 176.292 107.947 176.294 106.945C176.3 101.841 176.306 96.7377 176.307 91.6338C176.307 89.7327 176.314 87.8307 176.274 85.9302Z" fill="#ED7361"/>
<path d="M156.226 112.522C156.227 101.861 156.226 91.2005 156.226 80.5396C156.226 80.4146 156.229 80.2892 156.225 80.1642V79.5731H150.021V80.1134C150.02 80.174 150.02 80.2388 150.021 80.3138V86.7748H150.021C150.021 89.5334 150.02 92.2919 150.02 95.0504V96.653C149.769 95.3475 149.769 95.3475 149.718 95.0825C149.186 92.3131 148.651 89.544 148.117 86.7748H148.12L147.933 85.8194C147.572 83.9477 147.212 82.0756 146.85 80.2036C146.816 80.0257 146.79 79.9023 146.756 79.8111L146.709 79.5731H144.528C143.923 79.5717 143.319 79.5725 142.714 79.5731H140.373C140.263 79.5706 140.171 79.5696 140.096 79.5731H139.741V80.1546C139.74 80.2506 139.741 80.3613 139.741 80.4906V86.7748H139.742C139.741 93.2846 139.741 99.7946 139.741 106.304H139.74V112.429C139.74 112.548 139.739 112.667 139.74 112.785V113.506H145.776V112.858C145.776 112.78 145.776 112.696 145.776 112.598C145.775 108.144 145.774 103.689 145.778 99.2348V97.5105C145.867 97.9373 146.067 98.9459 146.127 99.2546C147.008 103.77 147.886 108.287 148.769 112.802C148.803 112.976 148.83 113.107 148.861 113.204L148.921 113.506H156.225V112.986C156.227 112.862 156.226 112.712 156.226 112.522Z" fill="#ED7361"/>
<path d="M215.522 80.5398C215.522 80.4146 215.525 80.2894 215.52 80.1644V79.5731H209.316V80.1136C209.316 80.1742 209.316 80.239 209.316 80.314V86.775H209.316C209.316 89.5334 209.316 92.2919 209.316 95.0505V96.6532C209.065 95.3477 209.065 95.3477 209.014 95.0827C208.482 92.313 207.946 89.5442 207.412 86.775H207.415L207.228 85.8196C206.867 83.9477 206.507 82.0756 206.146 80.2038C206.111 80.0257 206.085 79.9025 206.052 79.8111L206.005 79.5731H203.823C203.219 79.5719 202.614 79.5725 202.01 79.5731H199.669C199.559 79.5706 199.467 79.5696 199.392 79.5731H199.037V80.1548C199.036 80.2505 199.036 80.3613 199.037 80.4907V86.775H199.037C199.036 93.2848 199.036 99.7946 199.036 106.305H199.036V112.429C199.036 112.548 199.035 112.667 199.036 112.785V113.507H205.072V112.858C205.072 112.78 205.072 112.696 205.072 112.599C205.071 108.144 205.069 103.689 205.074 99.235V97.5107C205.163 97.9375 205.362 98.9461 205.423 99.2546C206.303 103.77 207.182 108.287 208.065 112.802C208.099 112.976 208.125 113.107 208.157 113.204L208.216 113.507H215.52V112.986C215.523 112.863 215.521 112.712 215.521 112.522C215.522 101.862 215.522 91.2007 215.522 80.5398Z" fill="#ED7361"/>
<path d="M117.611 107.802C117.536 107.8 117.452 107.798 117.35 107.798C116.324 107.793 115.298 107.788 114.272 107.799C113.933 107.803 113.75 107.697 113.773 107.331C113.785 107.132 113.773 106.931 113.773 106.731C113.773 102.727 113.773 98.7239 113.773 94.7206C113.773 91.4743 113.773 88.2279 113.773 84.9818H113.773V79.5708H106.571V80.3454C106.571 80.3618 106.571 80.3764 106.571 80.3933C106.57 80.5185 106.57 80.6435 106.57 80.7687V96.5321C106.57 100.932 106.571 105.331 106.571 109.731V112.911C106.57 112.931 106.571 112.951 106.57 112.971C106.566 113.025 106.567 113.073 106.571 113.118V113.496H107.015C107.039 113.498 107.061 113.5 107.087 113.5C108.089 113.497 109.092 113.497 110.095 113.496H110.56V113.496C111.267 113.495 111.974 113.493 112.682 113.493H118.065V107.802H117.611Z" fill="#ED7361"/>
<path d="M191.089 172.518C191.205 172.195 191.416 172.079 191.579 171.931C193.05 170.592 194.519 169.251 196.001 167.925C196.583 167.404 196.974 166.785 197.069 166.009C197.245 164.588 197.221 163.156 197.127 161.734C197.039 160.399 196.325 159.618 195.03 159.239C194.419 159.061 193.792 159 193.158 159C190.841 158.999 188.524 158.994 186.207 159.004C185.764 159.006 185.317 159.041 184.88 159.113C183.1 159.403 182.221 160.439 182.209 162.234C182.205 162.772 182.205 163.31 182.209 163.848C182.214 164.604 182.103 164.581 182.909 164.581C184.478 164.581 186.045 164.588 187.613 164.575C187.93 164.573 188.313 164.719 188.551 164.473C188.739 164.279 188.592 163.935 188.622 163.66C188.629 163.59 188.629 163.519 188.64 163.45C188.741 162.85 189.174 162.462 189.736 162.465C190.278 162.469 190.652 162.818 190.743 163.441C190.859 164.232 190.66 164.924 190.051 165.474C189.357 166.102 188.668 166.736 187.975 167.366C186.193 168.988 184.416 170.617 182.621 172.225C182.314 172.5 182.182 172.78 182.2 173.19C182.229 173.891 182.207 174.594 182.208 175.295C182.21 175.997 182.211 175.997 182.877 176.004C182.994 176.005 183.111 176.004 183.228 176.004H195.654C195.911 176.004 196.169 176.005 196.426 176.004C197.164 176 197.166 176 197.169 175.295C197.171 174.616 197.171 173.938 197.169 173.259C197.167 172.514 197.243 172.518 196.458 172.519C194.913 172.519 193.369 172.519 191.824 172.518H191.089ZM192.224 172.027H193.052C194.41 172.028 195.768 172.024 197.126 172.03C197.623 172.033 197.634 172.044 197.637 172.536C197.644 173.707 197.631 174.877 197.645 176.048C197.649 176.376 197.546 176.533 197.204 176.496C197.089 176.484 196.97 176.495 196.853 176.495C192.078 176.495 187.302 176.497 182.526 176.494C181.667 176.494 181.749 176.586 181.746 175.694C181.743 174.828 181.774 173.96 181.734 173.096C181.711 172.583 181.868 172.235 182.255 171.889C184.696 169.702 187.111 167.487 189.539 165.285C189.874 164.981 190.163 164.658 190.262 164.196C190.324 163.91 190.295 163.64 190.215 163.366C190.15 163.142 190.026 162.99 189.781 162.976C189.527 162.961 189.326 163.051 189.203 163.289C189.114 163.46 189.084 163.642 189.083 163.831C189.082 164.065 189.085 164.299 189.08 164.533C189.069 165.057 189.067 165.068 188.524 165.069C186.44 165.074 184.357 165.074 182.273 165.068C181.756 165.067 181.75 165.054 181.747 164.505C181.742 163.639 181.733 162.773 181.749 161.907C181.776 160.397 182.55 159.334 183.981 158.844C184.649 158.615 185.344 158.516 186.052 158.516C188.463 158.517 190.874 158.515 193.286 158.517C194.063 158.518 194.824 158.624 195.554 158.909C196.874 159.422 197.575 160.401 197.627 161.798C197.672 163.013 197.657 164.233 197.624 165.449C197.593 166.598 197.167 167.569 196.27 168.344C195.102 169.353 193.975 170.412 192.831 171.45C192.666 171.601 192.507 171.759 192.224 172.027Z" fill="#272A29" stroke="white" stroke-width="0.5" stroke-miterlimit="10"/>
<path d="M155.434 172.516C155.497 172.248 155.629 172.178 155.73 172.086C157.235 170.717 158.735 169.34 160.256 167.988C160.918 167.4 161.33 166.709 161.421 165.823C161.563 164.445 161.536 163.063 161.462 161.688C161.397 160.497 160.71 159.71 159.583 159.31C158.935 159.08 158.263 159.001 157.583 158.999C155.196 158.992 152.81 158.991 150.423 159C149.719 159.002 149.024 159.087 148.359 159.346C147.334 159.744 146.707 160.458 146.584 161.574C146.486 162.46 146.564 163.35 146.536 164.238C146.527 164.532 146.683 164.582 146.927 164.58C147.723 164.573 148.518 164.578 149.314 164.578C150.39 164.578 151.467 164.57 152.543 164.582C152.847 164.586 152.955 164.478 152.945 164.175C152.933 163.828 152.9 163.475 153.055 163.139C153.268 162.677 153.696 162.411 154.174 162.468C154.637 162.522 154.959 162.827 155.047 163.342C155.185 164.151 155.033 164.878 154.395 165.453C154.135 165.688 153.878 165.927 153.619 166.164C151.403 168.179 149.186 170.193 146.972 172.209C146.768 172.395 146.53 172.55 146.535 172.886C146.546 173.798 146.543 174.711 146.536 175.623C146.534 175.889 146.641 176.012 146.909 176C147.049 175.994 147.189 176.001 147.33 176.001C151.776 176.001 156.222 176.001 160.668 176.001C160.785 176.001 160.903 175.991 161.019 176.002C161.374 176.036 161.518 175.903 161.506 175.524C161.481 174.706 161.503 173.886 161.497 173.068C161.493 172.532 161.486 172.521 160.954 172.518C159.69 172.511 158.427 172.516 157.163 172.516H155.434ZM156.714 172.024C157.103 172.024 157.492 172.024 157.881 172.024C159.052 172.024 160.223 172.021 161.394 172.026C161.946 172.028 161.956 172.035 161.959 172.548C161.965 173.695 161.966 174.842 161.959 175.989C161.956 176.477 161.944 176.486 161.443 176.49C160.6 176.497 159.758 176.492 158.915 176.492C154.887 176.492 150.86 176.493 146.833 176.492C146.005 176.491 146.067 176.563 146.066 175.745C146.065 174.808 146.084 173.871 146.058 172.936C146.046 172.523 146.185 172.251 146.491 171.975C148.962 169.75 151.413 167.504 153.876 165.271C154.308 164.878 154.638 164.452 154.617 163.829C154.598 163.266 154.44 162.994 154.093 162.969C153.696 162.941 153.448 163.219 153.407 163.769C153.387 164.049 153.379 164.333 153.406 164.611C153.444 165.001 153.263 165.076 152.915 165.075C150.808 165.062 148.7 165.072 146.593 165.066C146.077 165.064 146.071 165.05 146.068 164.499C146.063 163.633 146.056 162.766 146.069 161.9C146.09 160.451 146.823 159.415 148.182 158.894C148.799 158.657 149.442 158.528 150.101 158.526C152.7 158.519 155.299 158.517 157.898 158.525C158.629 158.528 159.344 158.665 160.017 158.956C161.227 159.481 161.897 160.419 161.943 161.732C161.987 162.994 161.968 164.26 161.939 165.524C161.914 166.628 161.487 167.553 160.642 168.298C159.308 169.475 158.002 170.683 156.684 171.877C156.694 171.926 156.704 171.975 156.714 172.024Z" fill="#272A29" stroke="white" stroke-width="0.5" stroke-miterlimit="10"/>
<path d="M200.172 167.472C200.172 169.017 200.175 170.562 200.17 172.107C200.168 172.67 200.204 173.229 200.316 173.782C200.551 174.944 201.201 175.711 202.391 175.985C203.012 176.128 203.642 176.166 204.272 176.169C206.495 176.182 208.719 176.18 210.942 176.17C211.456 176.167 211.972 176.131 212.482 176.069C214.053 175.88 214.852 175.073 215.071 173.497C215.129 173.079 215.168 172.662 215.168 172.239C215.164 169.009 215.163 165.779 215.168 162.549C215.169 162.148 215.127 161.755 215.056 161.363C214.858 160.268 214.223 159.56 213.156 159.244C212.523 159.056 211.87 159 211.214 158.999C208.826 158.995 206.439 158.992 204.052 159.002C203.609 159.004 203.162 159.04 202.724 159.109C201.303 159.333 200.539 160.096 200.258 161.51C200.179 161.905 200.174 162.3 200.173 162.698C200.17 164.289 200.172 165.881 200.172 167.472ZM199.709 167.461C199.709 165.799 199.703 164.137 199.711 162.474C199.723 159.919 200.954 158.597 203.523 158.54C206.261 158.48 209.001 158.52 211.74 158.535C212.158 158.538 212.582 158.609 212.99 158.704C214.599 159.075 215.453 160.08 215.609 161.758C215.633 162.014 215.638 162.273 215.638 162.53C215.639 165.784 215.64 169.039 215.637 172.293C215.637 172.808 215.608 173.32 215.508 173.83C215.2 175.407 214.347 176.254 212.766 176.512C212.234 176.598 211.7 176.649 211.159 176.648C208.794 176.642 206.429 176.644 204.065 176.646C203.406 176.647 202.759 176.581 202.12 176.412C200.916 176.094 200.205 175.301 199.895 174.119C199.739 173.526 199.709 172.918 199.709 172.308C199.71 170.693 199.709 169.077 199.709 167.461Z" fill="#272A29"/>
<path d="M200.172 167.472C200.172 169.017 200.175 170.562 200.17 172.107C200.168 172.67 200.204 173.229 200.316 173.782C200.551 174.944 201.201 175.711 202.391 175.985C203.012 176.128 203.642 176.166 204.272 176.169C206.495 176.182 208.719 176.18 210.942 176.17C211.456 176.167 211.972 176.131 212.482 176.069C214.053 175.88 214.852 175.073 215.071 173.497C215.129 173.079 215.168 172.662 215.168 172.239C215.164 169.009 215.163 165.779 215.168 162.549C215.169 162.148 215.127 161.755 215.056 161.363C214.858 160.268 214.223 159.56 213.156 159.244C212.523 159.056 211.87 159 211.214 158.999C208.826 158.995 206.439 158.992 204.052 159.002C203.609 159.004 203.162 159.04 202.724 159.109C201.303 159.333 200.539 160.096 200.258 161.51C200.179 161.905 200.174 162.3 200.173 162.698C200.17 164.289 200.172 165.881 200.172 167.472ZM199.709 167.461C199.709 165.799 199.703 164.137 199.711 162.474C199.723 159.919 200.954 158.597 203.523 158.54C206.261 158.48 209.001 158.52 211.74 158.535C212.158 158.538 212.582 158.609 212.99 158.704C214.599 159.075 215.453 160.08 215.609 161.758C215.633 162.014 215.638 162.273 215.638 162.53C215.639 165.784 215.64 169.039 215.637 172.293C215.637 172.808 215.608 173.32 215.508 173.83C215.2 175.407 214.347 176.254 212.766 176.512C212.234 176.598 211.7 176.649 211.159 176.648C208.794 176.642 206.429 176.644 204.065 176.646C203.406 176.647 202.759 176.581 202.12 176.412C200.916 176.094 200.205 175.301 199.895 174.119C199.739 173.526 199.709 172.918 199.709 172.308C199.71 170.693 199.709 169.077 199.709 167.461Z" stroke="white" stroke-width="0.5" stroke-miterlimit="10"/>
<path d="M179.488 167.464C179.488 165.826 179.486 164.188 179.489 162.549C179.489 162.127 179.455 161.711 179.371 161.295C179.155 160.225 178.519 159.551 177.486 159.244C176.831 159.05 176.154 158.998 175.473 158.998C173.109 158.996 170.745 158.992 168.381 159.001C167.962 159.003 167.539 159.038 167.124 159.098C165.615 159.316 164.809 160.135 164.569 161.648C164.517 161.973 164.493 162.298 164.493 162.626C164.495 165.809 164.497 168.992 164.491 172.175C164.49 172.646 164.542 173.11 164.609 173.572C164.825 175.043 165.657 175.874 167.13 176.067C167.639 176.134 168.156 176.167 168.67 176.17C170.847 176.18 173.023 176.182 175.2 176.169C175.923 176.164 176.648 176.133 177.359 175.958C178.453 175.689 179.093 174.993 179.33 173.912C179.446 173.386 179.493 172.85 179.49 172.309C179.483 170.694 179.488 169.079 179.488 167.464ZM179.95 167.501C179.95 169.14 179.952 170.779 179.949 172.418C179.949 172.933 179.926 173.444 179.811 173.952C179.48 175.424 178.663 176.232 177.178 176.499C176.625 176.598 176.067 176.649 175.502 176.647C173.114 176.641 170.726 176.644 168.337 176.645C167.655 176.646 166.983 176.575 166.328 176.377C165.283 176.061 164.607 175.378 164.294 174.332C164.118 173.745 164.032 173.146 164.032 172.533C164.033 169.138 164.032 165.743 164.033 162.348C164.033 162.02 164.055 161.697 164.122 161.372C164.44 159.828 165.316 158.953 166.861 158.654C167.369 158.555 167.88 158.512 168.397 158.512C170.762 158.515 173.126 158.516 175.491 158.512C176.055 158.511 176.614 158.562 177.166 158.668C178.866 158.995 179.851 160.08 179.924 161.812C179.98 163.121 179.946 164.434 179.95 165.745C179.952 166.33 179.95 166.916 179.95 167.501Z" fill="#272A29"/>
<path d="M179.488 167.464C179.488 165.826 179.486 164.188 179.489 162.549C179.489 162.127 179.455 161.711 179.371 161.295C179.155 160.225 178.519 159.551 177.486 159.244C176.831 159.05 176.154 158.998 175.473 158.998C173.109 158.996 170.745 158.992 168.381 159.001C167.962 159.003 167.539 159.038 167.124 159.098C165.615 159.316 164.809 160.135 164.569 161.648C164.517 161.973 164.493 162.298 164.493 162.626C164.495 165.809 164.497 168.992 164.491 172.175C164.49 172.646 164.542 173.11 164.609 173.572C164.825 175.043 165.657 175.874 167.13 176.067C167.639 176.134 168.156 176.167 168.67 176.17C170.847 176.18 173.023 176.182 175.2 176.169C175.923 176.164 176.648 176.133 177.359 175.958C178.453 175.689 179.093 174.993 179.33 173.912C179.446 173.386 179.493 172.85 179.49 172.309C179.483 170.694 179.488 169.079 179.488 167.464ZM179.95 167.501C179.95 169.14 179.952 170.779 179.949 172.418C179.949 172.933 179.926 173.444 179.811 173.952C179.48 175.424 178.663 176.232 177.178 176.499C176.625 176.598 176.067 176.649 175.502 176.647C173.114 176.641 170.726 176.644 168.337 176.645C167.655 176.646 166.983 176.575 166.328 176.377C165.283 176.061 164.607 175.378 164.294 174.332C164.118 173.745 164.032 173.146 164.032 172.533C164.033 169.138 164.032 165.743 164.033 162.348C164.033 162.02 164.055 161.697 164.122 161.372C164.44 159.828 165.316 158.953 166.861 158.654C167.369 158.555 167.88 158.512 168.397 158.512C170.762 158.515 173.126 158.516 175.491 158.512C176.055 158.511 176.614 158.562 177.166 158.668C178.866 158.995 179.851 160.08 179.924 161.812C179.98 163.121 179.946 164.434 179.95 165.745C179.952 166.33 179.95 166.916 179.95 167.501Z" stroke="white" stroke-width="0.5" stroke-miterlimit="10"/>
<path d="M191.08 172.517H191.816C193.36 172.518 194.905 172.519 196.45 172.518C197.234 172.517 197.158 172.513 197.16 173.258C197.162 173.937 197.163 174.615 197.16 175.294C197.158 175.999 197.156 176 196.418 176.003C196.161 176.004 195.903 176.003 195.646 176.003H183.219C183.102 176.003 182.985 176.004 182.868 176.003C182.203 175.996 182.202 175.996 182.2 175.295C182.198 174.593 182.221 173.89 182.191 173.189C182.174 172.779 182.306 172.499 182.613 172.224C184.408 170.616 186.185 168.987 187.967 167.365C188.659 166.735 189.349 166.101 190.043 165.474C190.652 164.923 190.85 164.231 190.735 163.44C190.644 162.817 190.27 162.468 189.728 162.464C189.166 162.461 188.732 162.849 188.632 163.449C188.62 163.518 188.621 163.589 188.613 163.659C188.584 163.934 188.73 164.278 188.543 164.472C188.305 164.719 187.922 164.572 187.605 164.574C186.037 164.587 184.469 164.58 182.901 164.58C182.094 164.58 182.205 164.603 182.2 163.847C182.197 163.309 182.197 162.771 182.2 162.233C182.212 160.438 183.091 159.402 184.872 159.112C185.309 159.04 185.756 159.005 186.199 159.003C188.516 158.993 190.832 158.998 193.149 158.999C193.783 158.999 194.411 159.06 195.022 159.238C196.316 159.617 197.031 160.398 197.119 161.734C197.212 163.155 197.237 164.587 197.061 166.008C196.965 166.784 196.575 167.403 195.993 167.924C194.511 169.25 193.042 170.591 191.571 171.93C191.407 172.079 191.197 172.194 191.08 172.517Z" fill="#272A29" stroke="white" stroke-width="0.5" stroke-miterlimit="10"/>
<path d="M155.447 172.519H157.176C158.44 172.519 159.703 172.515 160.967 172.522C161.499 172.524 161.506 172.535 161.51 173.071C161.516 173.89 161.494 174.709 161.519 175.528C161.531 175.906 161.387 176.039 161.032 176.006C160.916 175.995 160.798 176.004 160.681 176.004C156.235 176.004 151.789 176.004 147.343 176.004C147.202 176.004 147.062 175.997 146.922 176.003C146.654 176.016 146.547 175.892 146.549 175.627C146.556 174.714 146.559 173.801 146.548 172.889C146.543 172.553 146.781 172.398 146.985 172.212C149.199 170.196 151.416 168.182 153.632 166.167C153.891 165.931 154.148 165.691 154.408 165.456C155.046 164.882 155.198 164.154 155.06 163.345C154.972 162.83 154.65 162.525 154.187 162.471C153.709 162.415 153.281 162.68 153.068 163.142C152.913 163.478 152.946 163.831 152.958 164.178C152.968 164.482 152.86 164.589 152.556 164.585C151.48 164.573 150.403 164.581 149.327 164.581C148.531 164.581 147.736 164.576 146.94 164.583C146.696 164.585 146.54 164.535 146.549 164.241C146.577 163.353 146.499 162.463 146.597 161.577C146.72 160.461 147.347 159.747 148.372 159.349C149.037 159.091 149.732 159.006 150.436 159.003C152.823 158.994 155.209 158.995 157.596 159.002C158.276 159.005 158.948 159.083 159.596 159.313C160.723 159.713 161.41 160.5 161.475 161.691C161.549 163.067 161.576 164.448 161.434 165.826C161.343 166.712 160.931 167.403 160.269 167.991C158.748 169.343 157.248 170.72 155.743 172.09C155.642 172.181 155.51 172.252 155.447 172.519Z" fill="#272A29" stroke="white" stroke-width="0.5" stroke-miterlimit="10"/>
<path d="M208.76 167.63C208.76 166.461 208.764 165.293 208.758 164.125C208.756 163.846 208.755 163.559 208.694 163.289C208.571 162.747 208.169 162.455 207.627 162.465C207.089 162.475 206.717 162.788 206.62 163.35C206.577 163.601 206.571 163.862 206.571 164.118C206.568 166.431 206.568 168.745 206.572 171.058C206.572 171.314 206.577 171.575 206.625 171.825C206.732 172.376 207.119 172.681 207.664 172.679C208.214 172.679 208.605 172.377 208.71 171.832C208.758 171.583 208.757 171.321 208.758 171.064C208.763 169.92 208.76 168.775 208.76 167.63ZM200.167 167.474C200.166 165.882 200.165 164.29 200.168 162.699C200.169 162.302 200.174 161.906 200.253 161.511C200.534 160.097 201.298 159.334 202.719 159.11C203.157 159.041 203.604 159.005 204.047 159.004C206.434 158.994 208.821 158.996 211.209 159C211.865 159.002 212.518 159.058 213.151 159.245C214.218 159.561 214.853 160.269 215.051 161.365C215.122 161.756 215.164 162.15 215.163 162.55C215.158 165.78 215.158 169.01 215.163 172.24C215.163 172.663 215.124 173.08 215.066 173.498C214.847 175.074 214.047 175.881 212.477 176.07C211.967 176.132 211.451 176.168 210.937 176.171C208.714 176.181 206.49 176.183 204.267 176.17C203.637 176.167 203.007 176.129 202.386 175.986C201.196 175.712 200.546 174.945 200.311 173.783C200.199 173.23 200.163 172.671 200.165 172.108C200.169 170.563 200.167 169.018 200.167 167.474Z" fill="#272A29"/>
<path d="M208.76 167.63C208.76 166.461 208.764 165.293 208.758 164.125C208.756 163.846 208.755 163.559 208.694 163.289C208.571 162.747 208.169 162.455 207.627 162.465C207.089 162.475 206.717 162.788 206.62 163.35C206.577 163.601 206.571 163.862 206.571 164.118C206.568 166.431 206.568 168.745 206.572 171.058C206.572 171.314 206.577 171.575 206.625 171.825C206.732 172.376 207.119 172.681 207.664 172.679C208.214 172.679 208.605 172.377 208.71 171.832C208.758 171.583 208.757 171.321 208.758 171.064C208.763 169.92 208.76 168.775 208.76 167.63ZM200.167 167.474C200.166 165.882 200.165 164.29 200.168 162.699C200.169 162.302 200.174 161.906 200.253 161.511C200.534 160.097 201.298 159.334 202.719 159.11C203.157 159.041 203.604 159.005 204.047 159.004C206.434 158.994 208.821 158.996 211.209 159C211.865 159.002 212.518 159.058 213.151 159.245C214.218 159.561 214.853 160.269 215.051 161.365C215.122 161.756 215.164 162.15 215.163 162.55C215.158 165.78 215.158 169.01 215.163 172.24C215.163 172.663 215.124 173.08 215.066 173.498C214.847 175.074 214.047 175.881 212.477 176.07C211.967 176.132 211.451 176.168 210.937 176.171C208.714 176.181 206.49 176.183 204.267 176.17C203.637 176.167 203.007 176.129 202.386 175.986C201.196 175.712 200.546 174.945 200.311 173.783C200.199 173.23 200.163 172.671 200.165 172.108C200.169 170.563 200.167 169.018 200.167 167.474Z" stroke="white" stroke-width="0.5" stroke-miterlimit="10"/>
<path d="M173.084 167.582C173.084 166.414 173.086 165.246 173.082 164.077C173.081 163.844 173.08 163.607 173.04 163.379C172.937 162.787 172.547 162.461 171.981 162.463C171.414 162.466 171.04 162.791 170.937 163.394C170.902 163.599 170.905 163.813 170.905 164.023C170.903 166.383 170.903 168.743 170.905 171.103C170.905 171.313 170.901 171.526 170.934 171.732C171.036 172.361 171.444 172.7 172.041 172.674C172.627 172.649 172.972 172.331 173.053 171.717C173.083 171.486 173.082 171.251 173.083 171.017C173.086 169.872 173.084 168.727 173.084 167.582ZM179.486 167.466C179.486 169.08 179.481 170.695 179.489 172.31C179.491 172.851 179.444 173.387 179.329 173.913C179.091 174.994 178.451 175.69 177.358 175.959C176.646 176.134 175.922 176.165 175.198 176.17C173.022 176.183 170.845 176.181 168.668 176.17C168.155 176.168 167.638 176.135 167.129 176.068C165.656 175.875 164.823 175.044 164.608 173.573C164.54 173.111 164.489 172.647 164.49 172.176C164.495 168.993 164.493 165.81 164.492 162.627C164.491 162.299 164.516 161.974 164.567 161.649C164.807 160.136 165.614 159.317 167.122 159.099C167.538 159.039 167.96 159.004 168.38 159.002C170.744 158.993 173.108 158.997 175.471 158.999C176.152 158.999 176.829 159.051 177.484 159.245C178.517 159.552 179.154 160.226 179.37 161.296C179.454 161.712 179.488 162.128 179.487 162.551C179.485 164.189 179.486 165.827 179.486 167.466Z" fill="#272A29"/>
<path d="M173.084 167.582C173.084 166.414 173.086 165.246 173.082 164.077C173.081 163.844 173.08 163.607 173.04 163.379C172.937 162.787 172.547 162.461 171.981 162.463C171.414 162.466 171.04 162.791 170.937 163.394C170.902 163.599 170.905 163.813 170.905 164.023C170.903 166.383 170.903 168.743 170.905 171.103C170.905 171.313 170.901 171.526 170.934 171.732C171.036 172.361 171.444 172.7 172.041 172.674C172.627 172.649 172.972 172.331 173.053 171.717C173.083 171.486 173.082 171.251 173.083 171.017C173.086 169.872 173.084 168.727 173.084 167.582ZM179.486 167.466C179.486 169.08 179.481 170.695 179.489 172.31C179.491 172.851 179.444 173.387 179.329 173.913C179.091 174.994 178.451 175.69 177.358 175.959C176.646 176.134 175.922 176.165 175.198 176.17C173.022 176.183 170.845 176.181 168.668 176.17C168.155 176.168 167.638 176.135 167.129 176.068C165.656 175.875 164.823 175.044 164.608 173.573C164.54 173.111 164.489 172.647 164.49 172.176C164.495 168.993 164.493 165.81 164.492 162.627C164.491 162.299 164.516 161.974 164.567 161.649C164.807 160.136 165.614 159.317 167.122 159.099C167.538 159.039 167.96 159.004 168.38 159.002C170.744 158.993 173.108 158.997 175.471 158.999C176.152 158.999 176.829 159.051 177.484 159.245C178.517 159.552 179.154 160.226 179.37 161.296C179.454 161.712 179.488 162.128 179.487 162.551C179.485 164.189 179.486 165.827 179.486 167.466Z" stroke="white" stroke-width="0.5" stroke-miterlimit="10"/>
<path d="M208.292 167.612C208.292 166.422 208.292 165.231 208.291 164.041C208.291 163.808 208.289 163.578 208.208 163.35C208.105 163.06 207.897 162.963 207.612 162.97C207.34 162.977 207.169 163.128 207.116 163.379C207.068 163.605 207.048 163.841 207.048 164.073C207.043 166.406 207.044 168.741 207.047 171.075C207.047 171.284 207.05 171.498 207.093 171.702C207.149 171.971 207.296 172.159 207.615 172.169C207.942 172.18 208.167 172.064 208.233 171.737C208.274 171.534 208.288 171.321 208.289 171.113C208.294 169.946 208.292 168.779 208.292 167.612ZM208.765 167.629C208.765 168.774 208.768 169.919 208.763 171.064C208.762 171.32 208.763 171.582 208.715 171.832C208.61 172.376 208.219 172.678 207.669 172.679C207.124 172.68 206.737 172.376 206.63 171.825C206.582 171.574 206.577 171.313 206.577 171.057C206.573 168.744 206.573 166.43 206.576 164.117C206.576 163.861 206.581 163.601 206.625 163.349C206.722 162.788 207.094 162.474 207.632 162.464C208.174 162.455 208.576 162.746 208.699 163.289C208.76 163.558 208.761 163.845 208.763 164.124C208.769 165.292 208.765 166.461 208.765 167.629Z" fill="#272A29"/>
<path d="M208.292 167.612C208.292 166.422 208.292 165.231 208.291 164.041C208.291 163.808 208.289 163.578 208.208 163.35C208.105 163.06 207.897 162.963 207.612 162.97C207.34 162.977 207.169 163.128 207.116 163.379C207.068 163.605 207.048 163.841 207.048 164.073C207.043 166.406 207.044 168.741 207.047 171.075C207.047 171.284 207.05 171.498 207.093 171.702C207.149 171.971 207.296 172.159 207.615 172.169C207.942 172.18 208.167 172.064 208.233 171.737C208.274 171.534 208.288 171.321 208.289 171.113C208.294 169.946 208.292 168.779 208.292 167.612ZM208.765 167.629C208.765 168.774 208.768 169.919 208.763 171.064C208.762 171.32 208.763 171.582 208.715 171.832C208.61 172.376 208.219 172.678 207.669 172.679C207.124 172.68 206.737 172.376 206.63 171.825C206.582 171.574 206.577 171.313 206.577 171.057C206.573 168.744 206.573 166.43 206.576 164.117C206.576 163.861 206.581 163.601 206.625 163.349C206.722 162.788 207.094 162.474 207.632 162.464C208.174 162.455 208.576 162.746 208.699 163.289C208.76 163.558 208.761 163.845 208.763 164.124C208.769 165.292 208.765 166.461 208.765 167.629Z" stroke="white" stroke-width="0.5" stroke-miterlimit="10"/>
<path d="M172.608 167.583C172.608 166.393 172.609 165.203 172.607 164.012C172.607 163.78 172.613 163.545 172.523 163.322C172.422 163.076 172.238 162.965 171.977 162.969C171.716 162.973 171.537 163.079 171.451 163.341C171.384 163.545 171.362 163.749 171.362 163.961C171.362 166.365 171.362 168.769 171.362 171.173C171.362 171.383 171.374 171.59 171.445 171.793C171.533 172.047 171.693 172.165 171.964 172.17C172.26 172.176 172.477 172.067 172.544 171.778C172.596 171.554 172.605 171.316 172.606 171.085C172.611 169.918 172.608 168.75 172.608 167.583ZM173.079 167.583C173.079 168.728 173.081 169.873 173.078 171.018C173.078 171.252 173.079 171.487 173.048 171.718C172.967 172.332 172.622 172.65 172.036 172.675C171.439 172.701 171.031 172.362 170.929 171.733C170.896 171.527 170.9 171.314 170.9 171.104C170.898 168.744 170.898 166.384 170.9 164.024C170.9 163.814 170.897 163.6 170.932 163.395C171.035 162.791 171.41 162.467 171.977 162.464C172.543 162.461 172.933 162.788 173.035 163.38C173.075 163.608 173.077 163.845 173.077 164.078C173.081 165.247 173.079 166.415 173.079 167.583Z" fill="#272A29"/>
<path d="M172.608 167.583C172.608 166.393 172.609 165.203 172.607 164.012C172.607 163.78 172.613 163.545 172.523 163.322C172.422 163.076 172.238 162.965 171.977 162.969C171.716 162.973 171.537 163.079 171.451 163.341C171.384 163.545 171.362 163.749 171.362 163.961C171.362 166.365 171.362 168.769 171.362 171.173C171.362 171.383 171.374 171.59 171.445 171.793C171.533 172.047 171.693 172.165 171.964 172.17C172.26 172.176 172.477 172.067 172.544 171.778C172.596 171.554 172.605 171.316 172.606 171.085C172.611 169.918 172.608 168.75 172.608 167.583ZM173.079 167.583C173.079 168.728 173.081 169.873 173.078 171.018C173.078 171.252 173.079 171.487 173.048 171.718C172.967 172.332 172.622 172.65 172.036 172.675C171.439 172.701 171.031 172.362 170.929 171.733C170.896 171.527 170.9 171.314 170.9 171.104C170.898 168.744 170.898 166.384 170.9 164.024C170.9 163.814 170.897 163.6 170.932 163.395C171.035 162.791 171.41 162.467 171.977 162.464C172.543 162.461 172.933 162.788 173.035 163.38C173.075 163.608 173.077 163.845 173.077 164.078C173.081 165.247 173.079 166.415 173.079 167.583Z" stroke="white" stroke-width="0.5" stroke-miterlimit="10"/>
<path d="M208.279 167.61C208.279 168.777 208.281 169.944 208.276 171.111C208.275 171.319 208.261 171.532 208.22 171.735C208.154 172.062 207.929 172.178 207.602 172.167C207.283 172.157 207.136 171.969 207.08 171.7C207.037 171.496 207.034 171.282 207.034 171.073C207.031 168.739 207.03 166.404 207.035 164.071C207.035 163.839 207.055 163.603 207.103 163.377C207.156 163.126 207.327 162.975 207.599 162.968C207.884 162.961 208.092 163.058 208.195 163.348C208.276 163.576 208.278 163.806 208.278 164.039C208.279 165.229 208.279 166.42 208.279 167.61Z" fill="#272A29"/>
<path d="M208.279 167.61C208.279 168.777 208.281 169.944 208.276 171.111C208.275 171.319 208.261 171.532 208.22 171.735C208.154 172.062 207.929 172.178 207.602 172.167C207.283 172.157 207.136 171.969 207.08 171.7C207.037 171.496 207.034 171.282 207.034 171.073C207.031 168.739 207.03 166.404 207.035 164.071C207.035 163.839 207.055 163.603 207.103 163.377C207.156 163.126 207.327 162.975 207.599 162.968C207.884 162.961 208.092 163.058 208.195 163.348C208.276 163.576 208.278 163.806 208.278 164.039C208.279 165.229 208.279 166.42 208.279 167.61Z" stroke="white" stroke-width="0.5" stroke-miterlimit="10"/>
<path d="M172.633 167.582C172.633 168.749 172.637 169.916 172.631 171.083C172.63 171.315 172.621 171.553 172.569 171.777C172.502 172.066 172.285 172.174 171.989 172.169C171.718 172.163 171.558 172.046 171.47 171.792C171.399 171.588 171.387 171.382 171.387 171.172C171.387 168.768 171.387 166.364 171.387 163.959C171.387 163.748 171.41 163.543 171.476 163.339C171.562 163.078 171.741 162.971 172.002 162.968C172.263 162.964 172.447 163.075 172.548 163.321C172.638 163.544 172.632 163.778 172.633 164.011C172.634 165.201 172.633 166.392 172.633 167.582Z" fill="#272A29"/>
<path d="M172.633 167.582C172.633 168.749 172.637 169.916 172.631 171.083C172.63 171.315 172.621 171.553 172.569 171.777C172.502 172.066 172.285 172.174 171.989 172.169C171.718 172.163 171.558 172.046 171.47 171.792C171.399 171.588 171.387 171.382 171.387 171.172C171.387 168.768 171.387 166.364 171.387 163.959C171.387 163.748 171.41 163.543 171.476 163.339C171.562 163.078 171.741 162.971 172.002 162.968C172.263 162.964 172.447 163.075 172.548 163.321C172.638 163.544 172.632 163.778 172.633 164.011C172.634 165.201 172.633 166.392 172.633 167.582Z" stroke="white" stroke-width="0.5" stroke-miterlimit="10"/>
</g>
<defs>
<clipPath id="clip0">
<rect width="250" height="250" fill="white"/>
</clipPath>
</defs>
</svg>
